<?xml version="1.0" encoding="UTF-8" standalone="no"?>
<!DOCTYPE svg PUBLIC "-//W3C//DTD SVG 20010904//EN"
              "http://www.w3.org/TR/2001/REC-SVG-20010904/DTD/svg10.dtd">

<svg xmlns="http://www.w3.org/2000/svg"
     width="270.899mm" height="270.899mm"
     viewBox="0 0 1024 1024">
  <path id="Selection"
        fill="none" stroke="black" stroke-width="1"
        d="M 491.00,174.00
           C 488.60,164.83 496.02,153.69 503.04,148.25
             519.01,135.86 544.16,137.58 559.99,149.04
             564.82,152.54 570.34,159.41 572.45,165.00
             573.31,167.02 574.41,170.31 572.45,171.98
             570.87,173.23 566.93,173.00 565.00,173.00
             561.51,173.01 551.86,173.54 549.21,171.98
             545.85,170.00 545.50,165.57 539.98,161.65
             529.25,154.00 519.13,161.23 515.00,172.00
             515.00,172.00 509.00,172.00 509.00,172.00
             509.00,172.00 508.00,162.00 508.00,162.00
             508.00,162.00 504.00,171.00 504.00,171.00
             504.00,171.00 503.00,166.00 503.00,166.00
             503.00,166.00 499.00,172.00 499.00,172.00
             499.00,172.00 501.00,159.00 501.00,159.00
             495.67,163.70 495.36,167.70 493.00,174.00
             493.00,174.00 491.00,174.00 491.00,174.00 Z
           M 450.60,182.02
           C 454.66,180.29 459.62,181.00 464.00,181.00
             464.00,181.00 489.00,181.00 489.00,181.00
             489.00,181.00 579.00,181.00 579.00,181.00
             579.00,181.00 606.00,181.00 606.00,181.00
             607.99,181.00 611.81,180.77 613.40,182.02
             615.31,183.53 615.07,187.76 614.98,190.00
             614.70,196.71 611.71,195.99 606.00,196.00
             606.00,196.00 494.00,196.00 494.00,196.00
             494.00,196.00 484.00,195.05 484.00,195.05
             484.00,195.05 472.00,195.05 472.00,195.05
             472.00,195.05 456.00,196.00 456.00,196.00
             454.05,195.96 451.36,196.10 450.02,194.40
             448.82,192.88 448.94,188.91 449.02,187.00
             449.13,184.25 449.04,184.19 450.60,182.02 Z
           M 519.00,217.00
           C 516.77,207.69 520.59,207.10 529.00,207.00
             531.50,206.97 538.58,206.58 540.40,208.02
             542.55,209.72 541.95,218.15 546.70,215.83
             550.24,214.11 547.64,206.10 553.87,207.37
             558.48,208.31 555.90,215.80 560.00,215.80
             563.84,215.80 561.92,208.96 565.31,207.66
             571.31,205.34 570.82,216.20 574.79,215.38
             578.20,214.68 575.39,205.46 582.86,207.33
             586.85,208.33 587.06,218.76 584.98,221.40
             583.41,223.38 579.30,223.00 577.00,222.84
             577.00,222.84 517.00,222.84 517.00,222.84
             517.00,222.84 494.00,222.84 494.00,222.84
             484.55,223.11 477.52,224.94 478.17,213.00
             478.17,213.00 478.17,210.15 478.17,210.15
             479.13,207.40 481.54,206.85 482.98,208.62
             484.79,210.82 483.04,216.24 486.30,217.83
             492.89,221.05 489.23,205.08 494.50,208.17
             497.27,209.79 496.26,217.52 501.00,217.52
             506.89,217.52 503.27,206.00 508.74,207.74
             511.07,208.49 511.00,211.94 511.89,213.94
             513.56,217.71 515.42,217.59 519.00,217.00 Z
           M 450.60,232.02
           C 450.60,232.02 464.00,231.00 464.00,231.00
             464.00,231.00 489.00,231.00 489.00,231.00
             489.00,231.00 579.00,231.00 579.00,231.00
             579.00,231.00 607.00,231.00 607.00,231.00
             607.00,231.00 613.98,232.60 613.98,232.60
             613.98,232.60 615.00,243.00 615.00,243.00
             615.00,243.00 613.40,249.26 613.40,249.26
             613.40,249.26 604.00,251.00 604.00,251.00
             604.00,251.00 585.00,250.00 585.00,250.00
             585.00,250.00 476.00,250.00 476.00,250.00
             476.00,250.00 456.00,250.00 456.00,250.00
             456.00,250.00 450.02,248.40 450.02,248.40
             450.02,248.40 449.00,238.00 449.00,238.00
             449.00,238.00 450.60,232.02 450.60,232.02 Z
           M 440.60,259.02
           C 444.41,257.40 448.90,258.00 453.00,258.04
             453.00,258.04 467.00,258.04 467.00,258.04
             467.00,258.04 479.00,259.00 479.00,259.00
             479.00,259.00 493.00,259.00 493.00,259.00
             493.00,259.00 508.00,258.00 508.00,258.00
             508.00,258.00 614.00,258.00 614.00,258.00
             616.04,258.00 619.77,257.76 621.42,259.02
             624.80,261.60 623.01,271.90 623.00,276.00
             623.00,279.19 623.85,289.04 621.40,290.98
             619.81,292.23 615.99,292.00 614.00,292.00
             614.00,292.00 538.00,292.00 538.00,292.00
             538.00,292.00 522.00,291.00 522.00,291.00
             522.00,291.00 469.00,291.00 469.00,291.00
             469.00,291.00 447.00,292.00 447.00,292.00
             445.02,291.96 442.40,292.11 441.02,290.40
             439.27,288.24 439.00,278.97 439.00,276.00
             438.99,271.16 437.80,262.93 440.60,259.02 Z
           M 403.00,682.00
           C 395.87,681.24 389.85,677.07 384.00,673.17
             362.54,658.83 352.70,638.54 353.00,613.00
             353.00,613.00 355.83,584.00 355.83,584.00
             355.83,584.00 363.83,505.00 363.83,505.00
             363.83,505.00 369.17,448.00 369.17,448.00
             369.17,448.00 373.83,405.00 373.83,405.00
             373.83,405.00 379.43,350.00 379.43,350.00
             382.65,327.81 392.54,309.92 410.00,295.62
             415.94,290.75 424.24,284.87 432.00,284.00
             433.32,295.13 429.57,291.72 422.19,300.02
             418.26,304.43 418.55,306.51 415.72,309.83
             415.72,309.83 410.75,314.66 410.75,314.66
             407.39,318.16 401.53,325.73 399.38,330.00
             394.09,340.50 392.94,352.53 391.83,364.00
             391.83,364.00 387.17,409.00 387.17,409.00
             387.17,409.00 379.17,488.00 379.17,488.00
             379.17,488.00 373.72,543.00 373.72,543.00
             373.72,543.00 367.83,597.00 367.83,597.00
             367.21,603.18 365.61,616.39 366.17,622.00
             367.56,635.89 374.30,647.30 384.00,657.00
             387.34,660.33 390.08,663.08 394.00,665.78
             396.21,667.30 400.68,669.35 401.98,671.39
             403.40,673.62 403.00,679.26 403.00,682.00 Z
           M 631.60,285.13
           C 637.11,283.86 646.69,291.28 651.00,294.67
             669.05,308.89 679.18,327.50 682.42,350.00
             682.42,350.00 686.17,389.00 686.17,389.00
             686.17,389.00 688.83,411.00 688.83,411.00
             688.83,411.00 694.17,466.00 694.17,466.00
             694.17,466.00 697.83,498.00 697.83,498.00
             697.83,498.00 702.17,546.00 702.17,546.00
             702.17,546.00 708.82,613.00 708.82,613.00
             709.04,616.20 708.37,618.85 708.07,622.00
             706.30,641.11 698.26,656.41 683.91,669.25
             678.99,673.65 673.06,677.55 667.00,680.20
             664.04,681.50 660.66,682.85 659.28,678.85
             655.52,668.02 665.34,668.49 675.91,657.91
             686.39,647.44 695.45,630.21 694.49,615.00
             694.49,615.00 689.17,561.00 689.17,561.00
             689.17,561.00 682.83,494.00 682.83,494.00
             682.83,494.00 669.91,367.00 669.91,367.00
             668.79,351.00 665.83,335.27 656.22,322.00
             656.22,322.00 642.08,306.96 642.08,306.96
             640.73,304.45 641.45,303.43 638.74,300.00
             635.32,295.68 626.83,291.41 631.60,285.13 Z
           M 443.00,299.21
           C 443.00,299.21 506.00,299.21 506.00,299.21
             506.00,299.21 523.00,299.96 523.00,299.96
             523.00,299.96 539.00,299.96 539.00,299.96
             539.00,299.96 551.00,299.00 551.00,299.00
             551.00,299.00 590.00,299.00 590.00,299.00
             590.00,299.00 617.00,299.00 617.00,299.00
             620.12,299.02 626.27,298.97 628.94,300.34
             632.79,302.31 633.26,306.06 632.94,309.98
             632.39,316.73 627.29,315.99 622.00,316.00
             622.00,316.00 522.00,316.00 522.00,316.00
             522.00,316.00 507.00,315.00 507.00,315.00
             507.00,315.00 438.00,315.00 438.00,315.00
             435.84,315.00 432.24,315.22 430.43,313.98
             426.64,311.37 428.10,304.13 431.28,301.60
             433.70,299.67 439.68,299.90 443.00,299.21 Z
           M 644.00,354.00
           C 643.45,347.90 641.24,342.23 638.07,337.00
             636.76,334.83 633.05,330.31 632.87,328.09
             632.63,324.97 637.45,320.82 641.96,323.62
             646.61,326.50 651.95,336.76 653.80,342.00
             654.41,344.38 655.34,347.39 653.80,349.73
             652.11,352.87 647.28,353.66 644.00,354.00 Z
           M 417.00,354.00
           C 413.69,353.65 408.93,352.73 407.03,349.61
             405.79,347.55 406.45,345.16 407.03,343.00
             408.25,338.26 412.79,327.28 417.30,325.12
             419.71,323.97 426.07,326.40 429.00,327.00
             425.24,335.86 420.25,337.89 417.00,354.00 Z
           M 612.00,329.00
           C 611.97,331.26 612.29,334.36 610.40,336.00
             608.79,337.39 605.98,336.97 604.60,340.15
             602.43,345.15 606.97,354.67 599.94,355.95
             599.94,355.95 595.00,355.95 595.00,355.95
             595.00,355.95 550.00,355.95 550.00,355.95
             550.00,355.95 533.00,355.00 533.00,355.00
             533.00,355.00 500.00,355.00 500.00,355.00
             500.00,355.00 472.00,355.00 472.00,355.00
             469.46,355.00 462.45,355.44 460.60,353.98
             458.40,352.24 459.04,346.62 459.00,344.00
             458.96,341.84 459.04,339.26 457.40,337.60
             455.41,335.58 448.80,335.95 450.66,331.30
             451.71,328.66 455.69,329.02 458.00,329.00
             458.00,329.00 501.00,329.00 501.00,329.00
             501.00,329.00 541.00,329.00 541.00,329.00
             541.00,329.00 557.00,328.00 557.00,328.00
             557.00,328.00 591.00,328.00 591.00,328.00
             591.00,328.00 612.00,329.00 612.00,329.00 Z
           M 402.00,357.00
           C 407.39,358.53 413.90,361.63 419.00,364.11
             419.00,364.11 430.00,369.31 430.00,369.31
             432.75,370.57 440.69,374.45 442.36,376.61
             444.25,379.06 442.94,382.12 439.89,382.48
             437.48,382.77 432.33,380.28 430.00,379.28
             430.00,379.28 410.00,370.14 410.00,370.14
             407.67,368.97 402.26,366.85 401.06,364.73
             399.64,362.21 401.02,359.38 402.00,357.00 Z
           M 622.00,375.00
           C 631.12,370.18 651.87,358.65 660.98,357.00
             661.42,359.40 662.29,362.39 660.98,364.62
             659.80,366.59 656.02,368.59 654.00,369.69
             654.00,369.69 636.00,378.42 636.00,378.42
             633.98,379.30 630.11,381.35 628.04,381.30
             624.36,381.22 622.84,378.03 622.00,375.00 Z
           M 504.00,369.00
           C 505.85,367.47 507.71,365.46 510.04,364.72
             510.04,364.72 541.00,364.00 541.00,364.00
             558.15,364.20 588.46,372.35 604.00,379.75
             604.00,379.75 623.00,388.54 623.00,388.54
             626.11,389.99 629.82,391.29 630.67,395.04
             632.08,401.33 626.98,400.76 623.00,399.12
             623.00,399.12 594.00,386.32 594.00,386.32
             558.29,373.12 518.76,370.85 482.00,381.43
             468.88,385.20 456.40,391.09 444.00,396.70
             441.19,397.97 433.45,402.07 430.67,399.99
             428.75,398.47 429.12,395.35 430.67,393.63
             432.52,391.42 440.01,388.62 443.00,387.22
             443.00,387.22 466.00,377.52 466.00,377.52
             466.00,377.52 482.96,372.74 482.96,372.74
             482.96,372.74 488.28,369.93 488.28,369.93
             488.28,369.93 498.00,367.00 498.00,367.00
             498.00,367.00 499.00,369.00 499.00,369.00
             499.00,369.00 500.00,369.00 500.00,369.00
             500.00,369.00 501.00,366.00 501.00,366.00
             501.00,366.00 504.00,369.00 504.00,369.00 Z
           M 404.00,377.00
           C 404.00,377.00 411.99,380.56 411.99,380.56
             411.99,380.56 413.99,392.00 413.99,392.00
             413.99,392.00 411.02,423.00 411.02,423.00
             411.02,423.00 406.17,469.00 406.17,469.00
             406.17,469.00 399.83,534.00 399.83,534.00
             399.83,534.00 396.00,568.00 396.00,568.00
             391.93,567.57 386.33,566.05 384.60,561.82
             383.62,559.40 384.81,552.86 385.15,550.00
             385.15,550.00 388.00,523.00 388.00,523.00
             388.00,523.00 390.84,494.00 390.84,494.00
             390.84,494.00 396.83,438.00 396.83,438.00
             396.83,438.00 400.83,398.00 400.83,398.00
             401.54,390.94 401.76,383.79 404.00,377.00 Z
           M 666.00,567.00
           C 666.00,567.00 664.16,549.00 664.16,549.00
             664.16,549.00 659.17,504.00 659.17,504.00
             659.17,504.00 650.72,425.00 650.72,425.00
             650.72,425.00 647.17,392.00 647.17,392.00
             646.59,384.48 651.18,381.77 658.00,381.00
             658.00,381.00 662.83,424.00 662.83,424.00
             662.83,424.00 668.17,477.00 668.17,477.00
             668.17,477.00 672.98,522.00 672.98,522.00
             672.98,522.00 675.20,548.00 675.20,548.00
             675.89,551.50 676.78,559.79 675.20,562.78
             673.13,565.85 669.23,566.49 666.00,567.00 Z
           M 516.00,389.21
           C 516.00,389.21 538.00,389.21 538.00,389.21
             549.54,389.02 565.34,392.59 576.00,397.01
             647.62,426.70 667.38,525.20 609.00,577.83
             597.77,587.95 585.28,595.13 571.00,600.00
             558.01,604.42 552.31,604.90 539.00,606.17
             535.47,606.51 533.86,607.13 530.00,606.91
             506.29,605.56 484.73,600.45 465.00,586.56
             450.96,576.68 437.53,562.44 429.81,547.00
             408.63,504.64 420.07,449.54 454.32,417.34
             466.79,405.62 484.34,395.96 501.00,391.90
             501.00,391.90 516.00,389.21 516.00,389.21 Z
           M 581.00,410.00
           C 564.99,402.64 560.71,400.60 543.00,398.83
             543.00,398.83 536.00,398.19 536.00,398.19
             536.00,398.19 530.00,398.19 530.00,398.19
             530.00,398.19 522.00,398.19 522.00,398.19
             522.00,398.19 503.01,400.82 503.01,400.82
             497.44,402.14 497.73,404.05 493.96,405.42
             493.96,405.42 486.00,407.13 486.00,407.13
             482.17,408.54 476.26,412.01 477.91,416.91
             478.86,419.74 482.58,421.90 481.67,424.69
             480.15,429.32 464.30,431.39 473.15,438.13
             474.45,439.12 475.54,439.42 477.00,440.00
             479.13,436.85 482.07,431.82 486.00,430.89
             488.26,430.35 490.49,431.30 492.58,432.01
             492.58,432.01 498.66,434.02 498.66,434.02
             502.81,436.74 502.42,443.68 502.00,448.00
             502.00,448.00 493.02,445.37 493.02,445.37
             493.02,445.37 484.87,451.92 484.87,451.92
             484.87,451.92 479.00,454.84 479.00,454.84
             479.00,454.84 464.72,468.04 464.72,468.04
             464.72,468.04 462.00,475.00 462.00,475.00
             454.75,469.90 446.78,471.68 445.00,481.00
             456.39,481.29 453.75,485.56 454.80,491.00
             454.80,491.00 457.00,498.00 457.00,498.00
             457.00,498.00 448.91,492.41 448.91,492.41
             448.91,492.41 438.38,487.58 438.38,487.58
             438.38,487.58 430.00,477.00 430.00,477.00
             426.32,485.84 426.89,496.56 427.00,506.00
             427.39,538.99 452.25,572.55 481.00,587.03
             521.40,607.37 573.21,600.81 605.96,568.91
             624.15,551.20 635.29,524.33 635.00,499.00
             634.95,494.81 633.72,483.33 630.57,480.60
             629.24,479.45 620.43,477.63 618.00,477.00
             621.90,481.82 623.35,481.48 629.00,483.00
             627.03,486.35 616.98,496.30 612.82,494.08
             609.62,492.37 609.68,488.18 604.00,485.00
             604.91,493.07 609.79,501.50 619.00,499.00
             618.97,506.36 612.56,509.99 609.07,516.00
             605.07,522.88 606.61,526.37 605.69,529.96
             604.85,533.23 602.75,534.32 601.08,537.09
             598.52,541.33 599.11,544.86 594.78,550.00
             592.56,552.63 587.57,557.71 583.72,556.80
             576.40,555.08 572.29,538.58 571.80,532.00
             571.60,529.29 572.27,527.51 572.47,525.00
             572.68,522.43 572.34,520.49 571.76,518.00
             571.33,516.13 570.64,513.69 569.72,512.02
             562.29,498.43 548.67,514.02 538.65,501.70
             529.82,490.84 538.52,472.43 550.01,467.48
             553.01,466.19 562.91,463.27 565.83,464.30
             568.47,465.23 572.28,470.47 579.00,469.59
             579.00,469.59 584.00,468.19 584.00,468.19
             586.90,467.83 591.89,468.00 595.00,468.19
             595.00,468.19 595.00,465.00 595.00,465.00
             585.58,464.23 589.78,458.37 592.21,457.11
             594.92,455.71 596.77,457.71 603.00,456.00
             599.85,452.10 594.26,448.08 589.63,452.51
             587.32,454.73 585.16,461.97 581.53,460.10
             581.53,460.10 578.00,456.00 578.00,456.00
             578.00,456.00 573.00,460.00 573.00,460.00
             572.54,458.47 572.50,457.59 571.41,456.23
             565.58,448.97 558.55,459.70 554.00,461.24
             549.49,462.77 545.84,459.31 547.17,456.22
             548.82,452.37 556.26,453.85 554.67,447.06
             553.45,441.86 548.48,444.99 546.91,442.48
             545.63,440.43 549.89,435.08 551.00,433.00
             558.38,437.58 557.54,444.81 563.78,439.57
             564.82,438.69 565.20,437.98 566.00,437.00
             564.52,435.30 562.53,433.52 562.47,431.09
             562.41,428.46 570.39,418.30 572.51,416.60
             576.65,413.27 578.06,416.94 581.00,410.00 Z
           M 547.00,404.01
           C 544.28,413.26 535.63,419.07 528.00,424.00
             525.08,425.88 520.80,429.18 517.53,426.39
             512.71,422.47 517.25,416.36 517.53,414.00
             518.37,409.27 511.36,404.44 521.00,404.01
             521.00,404.01 524.00,404.01 524.00,404.01
             524.00,404.01 547.00,404.01 547.00,404.01 Z
           M 496.00,429.00
           C 492.18,419.49 490.44,421.79 489.23,418.74
             488.12,415.95 490.68,411.94 493.95,412.74
             497.34,413.57 503.07,421.21 501.61,424.79
             500.69,427.06 498.04,428.04 496.00,429.00 Z
           M 591.00,421.00
           C 590.13,416.02 588.77,415.81 584.00,415.00
             585.57,419.46 586.32,420.22 591.00,421.00 Z
           M 575.95,430.20
           C 568.80,432.56 569.90,438.79 575.00,438.21
             579.41,437.70 581.79,432.34 575.95,430.20 Z
           M 488.00,573.00
           C 482.03,571.19 481.22,567.39 478.86,562.00
             478.86,562.00 472.71,546.00 472.71,546.00
             471.29,540.46 473.08,538.42 468.89,532.00
             465.59,526.94 456.71,518.96 455.97,513.00
             455.40,508.42 463.08,495.88 469.04,495.16
             472.55,494.74 474.88,496.30 478.00,497.36
             483.74,499.31 487.79,498.79 492.83,503.34
             495.91,506.13 497.84,510.02 501.09,512.28
             505.42,515.28 510.29,513.95 513.26,518.14
             516.43,522.63 512.42,526.74 510.99,531.00
             510.30,533.04 510.01,535.86 508.42,537.40
             507.03,538.74 505.73,538.71 504.00,539.00
             501.96,554.09 494.51,556.30 491.31,562.10
             491.31,562.10 488.00,573.00 488.00,573.00 Z
           M 605.00,547.00
           C 605.24,544.29 605.49,542.61 606.36,540.00
             606.92,538.31 607.64,536.54 608.53,535.00
             609.62,533.13 612.72,528.64 615.59,530.17
             617.53,531.38 616.47,535.26 615.59,537.00
             613.65,542.31 610.76,546.06 605.00,547.00 Z
           M 681.94,570.00
           C 682.16,572.10 682.89,575.80 681.94,577.61
             680.73,579.72 673.46,583.16 671.00,584.60
             671.00,584.60 639.00,601.25 639.00,601.25
             634.88,603.31 624.15,610.52 620.74,604.85
             618.98,601.92 621.84,599.89 624.02,598.47
             624.02,598.47 641.00,589.58 641.00,589.58
             641.00,589.58 658.00,580.70 658.00,580.70
             664.60,577.22 674.86,570.76 681.94,570.00 Z
           M 426.00,602.00
           C 426.00,602.00 387.00,583.25 387.00,583.25
             383.72,581.60 374.64,577.91 379.02,572.61
             381.59,569.50 390.11,574.71 393.00,576.11
             398.63,578.84 417.07,587.66 420.62,591.33
             423.58,594.38 425.17,597.91 426.00,602.00 Z
           M 382.43,592.15
           C 386.96,591.47 390.16,594.55 390.76,599.00
             391.94,605.93 388.86,611.55 390.76,620.00
             392.81,630.04 398.56,638.03 406.00,644.91
             406.00,644.91 414.41,651.76 414.41,651.76
             416.63,654.50 414.90,659.47 411.79,660.85
             407.30,662.84 396.05,653.02 393.01,649.99
             380.51,637.48 376.60,623.20 378.72,606.00
             379.31,601.21 378.81,595.75 382.43,592.15 Z
           M 680.00,592.00
           C 683.82,613.31 684.15,632.43 667.98,649.00
             664.75,652.32 653.39,664.07 648.38,659.63
             645.30,656.56 644.84,652.99 648.38,649.89
             648.38,649.89 655.00,644.54 655.00,644.54
             660.07,640.31 666.67,632.27 668.90,626.00
             670.17,622.40 670.90,617.81 670.99,614.00
             671.21,604.26 665.93,593.97 680.00,592.00 Z
           M 431.00,603.00
           C 433.15,601.73 435.33,600.16 437.98,600.56
             443.61,601.42 442.70,607.93 437.00,607.22
             435.61,607.05 432.42,605.60 431.00,605.00
             431.00,605.00 431.00,603.00 431.00,603.00 Z
           M 406.05,611.02
           C 409.30,609.91 412.86,609.36 415.85,611.60
             420.37,614.98 419.81,623.22 414.89,625.98
             406.73,630.56 395.23,619.27 406.05,611.02 Z
           M 646.06,611.02
           C 649.25,609.93 652.85,609.34 655.77,611.60
             660.70,615.40 660.02,625.59 651.96,626.76
             642.53,628.14 638.33,617.05 646.06,611.02 Z
           M 449.60,617.02
           C 453.82,615.22 460.33,616.00 465.00,616.00
             465.00,616.00 497.00,616.00 497.00,616.00
             497.00,616.00 607.00,616.00 607.00,616.00
             608.99,616.00 612.81,615.77 614.40,617.02
             615.43,617.84 615.65,618.84 615.85,620.06
             616.26,622.47 616.44,629.36 614.40,630.98
             612.81,632.23 608.99,632.00 607.00,632.00
             607.00,632.00 518.00,632.00 518.00,632.00
             518.00,632.00 507.00,631.08 507.00,631.08
             507.00,631.08 497.00,632.01 497.00,632.01
             497.00,632.01 460.00,632.01 460.00,632.01
             460.00,632.01 450.31,632.01 450.31,632.01
             446.48,630.84 447.72,619.64 449.60,617.02 Z
           M 421.00,673.00
           C 421.35,657.46 431.60,645.24 447.00,642.23
             450.45,641.84 455.41,641.96 459.00,642.23
             459.00,642.23 474.00,643.00 474.00,643.00
             474.00,643.00 511.00,643.00 511.00,643.00
             511.00,643.00 528.00,642.00 528.00,642.00
             528.00,642.00 606.00,642.00 606.00,642.00
             619.01,642.02 628.08,644.44 636.66,655.00
             639.04,657.93 645.27,669.78 641.39,672.98
             639.86,674.23 635.94,674.00 634.00,674.00
             634.00,674.00 533.00,674.00 533.00,674.00
             533.00,674.00 511.13,672.69 511.13,672.69
             508.03,671.84 507.68,669.70 504.87,668.59
             504.87,668.59 490.00,667.00 490.00,667.00
             490.00,667.00 447.00,667.00 447.00,667.00
             440.96,667.00 433.74,665.64 429.00,670.00
             429.00,670.00 433.00,672.00 433.00,672.00
             433.00,672.00 421.00,673.00 421.00,673.00 Z
           M 474.00,670.00
           C 474.00,670.00 495.00,670.00 495.00,670.00
             498.97,670.01 500.69,669.56 504.00,672.00
             504.00,672.00 474.00,672.00 474.00,672.00
             474.00,672.00 474.00,670.00 474.00,670.00 Z
           M 414.31,683.02
           C 419.07,681.21 427.66,682.00 433.00,682.00
             433.00,682.00 470.00,682.00 470.00,682.00
             470.00,682.00 598.00,682.00 598.00,682.00
             598.00,682.00 645.00,682.00 645.00,682.00
             652.49,682.14 651.99,684.26 652.00,691.00
             652.00,691.00 652.00,714.00 652.00,714.00
             651.99,715.82 652.15,718.92 650.98,720.40
             649.41,722.38 645.30,722.00 643.00,722.00
             643.00,722.00 544.00,722.00 544.00,722.00
             544.00,722.00 529.00,721.00 529.00,721.00
             529.00,721.00 507.00,720.00 507.00,720.00
             507.00,720.00 466.00,720.00 466.00,720.00
             466.00,720.00 430.00,720.76 430.00,720.76
             427.58,720.90 415.03,721.97 413.60,720.76
             411.63,719.51 412.00,715.19 412.00,713.00
             412.00,713.00 412.00,691.00 412.00,691.00
             412.03,687.10 411.59,685.94 414.31,683.02 Z
           M 399.00,729.48
           C 399.00,729.48 437.00,730.00 437.00,730.00
             437.00,730.00 487.00,730.00 487.00,730.00
             487.00,730.00 504.00,729.00 504.00,729.00
             504.00,729.00 606.00,729.00 606.00,729.00
             606.00,729.00 626.00,729.00 626.00,729.00
             626.00,729.00 640.00,730.00 640.00,730.00
             640.00,730.00 654.00,729.00 654.00,729.00
             660.17,728.93 667.65,728.57 672.67,732.80
             675.25,734.97 679.91,743.08 676.39,745.98
             674.86,747.23 670.94,747.00 669.00,747.00
             669.00,747.00 524.00,747.00 524.00,747.00
             524.00,747.00 509.00,746.00 509.00,746.00
             509.00,746.00 482.00,746.00 482.00,746.00
             482.00,746.00 465.00,745.00 465.00,745.00
             465.00,745.00 429.00,745.00 429.00,745.00
             429.00,745.00 416.00,746.00 416.00,746.00
             416.00,746.00 397.00,746.00 397.00,746.00
             395.30,746.00 391.78,746.13 390.31,745.40
             387.78,744.15 388.16,741.31 388.69,739.00
             390.09,732.78 393.17,730.89 399.00,729.48 Z" />
</svg>
